<svg width="32" height="32" viewBox="0 0 32 32" fill="none" xmlns="http://www.w3.org/2000/svg">
<path d="M24.25 18.1499V22.4C24.25 23.4944 23.4631 24.4359 22.3782 24.58C20.2915 24.857 18.1624 25 16 25C13.8376 25 11.7085 24.857 9.62185 24.58C8.5369 24.4359 7.75 23.4944 7.75 22.4V18.1499M24.25 18.1499C24.7219 17.7476 25 17.1389 25 16.4889V12.7057C25 11.6247 24.2321 10.6908 23.1631 10.5309C22.0377 10.3625 20.8995 10.2332 19.75 10.1443M24.25 18.1499C24.0564 18.315 23.8302 18.4453 23.5771 18.5294C21.1953 19.3212 18.6477 19.75 16 19.75C13.3523 19.75 10.8047 19.3212 8.42289 18.5294C8.16984 18.4452 7.94361 18.3149 7.75 18.1499M7.75 18.1499C7.27808 17.7476 7 17.1389 7 16.4889V12.7057C7 11.6248 7.7679 10.6908 8.83694 10.5309C9.96233 10.3625 11.1005 10.2332 12.25 10.1443M19.75 10.1443V9.25C19.75 8.00736 18.7426 7 17.5 7H14.5C13.2574 7 12.25 8.00736 12.25 9.25V10.1443M19.75 10.1443C18.5126 10.0487 17.262 10 16 10C14.738 10 13.4874 10.0487 12.25 10.1443M16 16.75H16.0075V16.7575H16V16.75Z" stroke="#333333" stroke-width="1.5" stroke-linecap="round" stroke-linejoin="round"/>
</svg>
