<svg width="32" height="32" viewBox="0 0 32 32" fill="none" xmlns="http://www.w3.org/2000/svg">
<path d="M6.25 7H7.63568C8.14537 7 8.59138 7.34265 8.7227 7.83513L9.1059 9.27209M11.5 18.25C9.84315 18.25 8.5 19.5931 8.5 21.25H24.25M11.5 18.25H22.7183C23.8394 15.9494 24.8177 13.5664 25.6417 11.1125C20.88 9.89646 15.8905 9.25 10.75 9.25C10.2002 9.25 9.65214 9.2574 9.1059 9.27209M11.5 18.25L9.1059 9.27209M10 24.25C10 24.6642 9.66421 25 9.25 25C8.83579 25 8.5 24.6642 8.5 24.25C8.5 23.8358 8.83579 23.5 9.25 23.5C9.66421 23.5 10 23.8358 10 24.25ZM22.75 24.25C22.75 24.6642 22.4142 25 22 25C21.5858 25 21.25 24.6642 21.25 24.25C21.25 23.8358 21.5858 23.5 22 23.5C22.4142 23.5 22.75 23.8358 22.75 24.25Z" stroke="#333333" stroke-width="1.5" stroke-linecap="round" stroke-linejoin="round"/>
</svg>
