<svg width="70" height="70" viewBox="0 0 70 70" fill="none" xmlns="http://www.w3.org/2000/svg">
<rect width="70" height="70" rx="33.5" fill="#D9DBE9"/>
<path d="M15.048 39.752C15.048 39.256 14.848 38.792 14.448 38.36C14.048 37.928 13.544 37.536 12.936 37.184C12.344 36.816 11.536 36.368 10.512 35.84C9.296 35.2 8.32 34.656 7.584 34.208C6.848 33.744 6.216 33.2 5.688 32.576C5.176 31.952 4.92 31.264 4.92 30.512C4.92 29.712 5.256 28.856 5.928 27.944C6.6 27.016 7.416 26.24 8.376 25.616C9.352 24.976 10.248 24.656 11.064 24.656C12.056 24.656 13.208 24.776 14.52 25.016C15.832 25.256 16.792 25.512 17.4 25.784V30.44H16.488C15.704 29.144 14.84 28.136 13.896 27.416C12.968 26.696 11.992 26.336 10.968 26.336C10.056 26.336 9.328 26.624 8.784 27.2C8.256 27.76 7.992 28.496 7.992 29.408C7.992 29.936 8.192 30.432 8.592 30.896C9.008 31.344 9.512 31.744 10.104 32.096C10.712 32.448 11.552 32.904 12.624 33.464C13.808 34.056 14.768 34.584 15.504 35.048C16.24 35.496 16.856 36.024 17.352 36.632C17.864 37.224 18.12 37.896 18.12 38.648C18.12 39.448 17.76 40.312 17.04 41.24C16.32 42.152 15.44 42.928 14.4 43.568C13.376 44.192 12.44 44.504 11.592 44.504C10.552 44.504 9.312 44.384 7.872 44.144C6.448 43.904 5.424 43.648 4.8 43.376V38.72H5.712C6.528 40.016 7.456 41.024 8.496 41.744C9.536 42.464 10.608 42.824 11.712 42.824C12.368 42.824 12.952 42.68 13.464 42.392C13.976 42.104 14.368 41.728 14.64 41.264C14.912 40.784 15.048 40.28 15.048 39.752Z" fill="#303B91"/>
<path d="M49.288 30.704L48.568 30.944L45.376 26.216H42.448V42.176L44.968 43.04L44.488 44H37.192V43.256L39.448 41.48V26.216H36.592L33.4 30.944L32.68 30.704V24.704L33.976 25.136H47.992L49.288 24.704V30.704Z" fill="#303B91"/>
<path d="M24.74 42.01H22.84V38.64C22.84 38.2733 22.7833 38.0167 22.67 37.87C22.5567 37.7233 22.3533 37.65 22.06 37.65C21.84 37.65 21.62 37.69 21.4 37.77C21.1867 37.85 20.9333 38.0033 20.64 38.23V41.26L21.54 41.61L21.34 42.01H18.55V41.7L19.44 41V38.17L18.55 37.65V37.34L20.26 36.5L20.59 37.8L22.01 36.67C22.15 36.6167 22.3333 36.59 22.56 36.59C23.0133 36.59 23.3733 36.73 23.64 37.01C23.9067 37.2833 24.04 37.6567 24.04 38.13V41.25L24.94 41.61L24.74 42.01ZM30.9475 42H29.0475V41.13L27.9175 42.02C27.7842 42.0733 27.6175 42.1 27.4175 42.1C26.8442 42.1 26.4275 41.9567 26.1675 41.67C25.9142 41.3833 25.7875 41.04 25.7875 40.64C25.7875 40.4 25.8742 40.1633 26.0475 39.93C26.2208 39.6967 26.4675 39.4767 26.7875 39.27H29.0475V38.63C29.0475 38.1967 28.9308 37.89 28.6975 37.71C28.4708 37.53 28.1575 37.44 27.7575 37.44C27.3442 37.44 26.8375 37.69 26.2375 38.19L25.9375 37.81L27.3775 36.67C27.6442 36.6167 27.9642 36.59 28.3375 36.59C28.9442 36.59 29.4142 36.74 29.7475 37.04C30.0808 37.3333 30.2475 37.7633 30.2475 38.33V41.25L31.1475 41.6L30.9475 42ZM27.7375 41.25C28.1442 41.25 28.5808 41.0633 29.0475 40.69V39.68H27.2775C27.1908 39.7867 27.1275 39.8933 27.0875 40C27.0542 40.1067 27.0375 40.2233 27.0375 40.35C27.0375 40.5967 27.1008 40.81 27.2275 40.99C27.3542 41.1633 27.5242 41.25 27.7375 41.25ZM35.0384 42.11C34.6784 42.11 34.3451 42 34.0384 41.78V43.72L35.4384 44.15L35.2384 44.55H31.9484V44.24L32.8384 43.54V38.17L31.9484 37.65V37.34L33.6584 36.5L33.9884 37.8L35.4184 36.67C35.6318 36.6167 35.8751 36.59 36.1484 36.59C36.5084 36.59 36.8318 36.7067 37.1184 36.94C37.4118 37.1667 37.6384 37.4767 37.7984 37.87C37.9651 38.2633 38.0484 38.6967 38.0484 39.17C38.0484 39.6833 37.8918 40.1667 37.5784 40.62C37.2651 41.0667 36.8718 41.4267 36.3984 41.7C35.9318 41.9667 35.4784 42.1 35.0384 42.1V42.11ZM35.6384 37.55C35.3851 37.55 35.1384 37.6 34.8984 37.7C34.6584 37.8 34.3718 37.9967 34.0384 38.29V39.98C34.0384 40.3467 34.1751 40.6533 34.4484 40.9C34.7218 41.1467 35.1118 41.27 35.6184 41.27C36.3718 41.27 36.7484 40.7333 36.7484 39.66C36.7484 39.0667 36.6518 38.5667 36.4584 38.16C36.2651 37.7533 35.9918 37.55 35.6384 37.55Z" fill="black"/>
<path d="M49.76 42H47.86V41.13L46.73 42.02C46.5967 42.0733 46.43 42.1 46.23 42.1C45.6567 42.1 45.24 41.9567 44.98 41.67C44.7267 41.3833 44.6 41.04 44.6 40.64C44.6 40.4 44.6867 40.1633 44.86 39.93C45.0333 39.6967 45.28 39.4767 45.6 39.27H47.86V38.63C47.86 38.1967 47.7433 37.89 47.51 37.71C47.2833 37.53 46.97 37.44 46.57 37.44C46.1567 37.44 45.65 37.69 45.05 38.19L44.75 37.81L46.19 36.67C46.4567 36.6167 46.7767 36.59 47.15 36.59C47.7567 36.59 48.2267 36.74 48.56 37.04C48.8933 37.3333 49.06 37.7633 49.06 38.33V41.25L49.96 41.6L49.76 42ZM46.55 41.25C46.9567 41.25 47.3933 41.0633 47.86 40.69V39.68H46.09C46.0033 39.7867 45.94 39.8933 45.9 40C45.8667 40.1067 45.85 40.2233 45.85 40.35C45.85 40.5967 45.9133 40.81 46.04 40.99C46.1667 41.1633 46.3367 41.25 46.55 41.25ZM54.6609 36.59C55.0209 36.59 55.3443 36.7067 55.6309 36.94C55.9243 37.1667 56.1509 37.4767 56.3109 37.87C56.4776 38.2633 56.5609 38.6967 56.5609 39.17C56.5609 39.6833 56.4043 40.1667 56.0909 40.62C55.7776 41.0667 55.3843 41.4267 54.9109 41.7C54.4443 41.9667 53.9909 42.1 53.5509 42.1C53.2776 42.1 53.0209 42.04 52.7809 41.92C52.5476 41.8 52.3409 41.63 52.1609 41.41L51.7309 42H51.3509V34.84L50.4609 34.22V33.91L52.1709 33.27H52.5509V37.73L53.8909 36.67C54.1043 36.6167 54.3609 36.59 54.6609 36.59ZM54.1309 41.26C54.8843 41.26 55.2609 40.7233 55.2609 39.65C55.2609 39.03 55.1643 38.5067 54.9709 38.08C54.7776 37.6533 54.5043 37.44 54.1509 37.44C53.8976 37.44 53.6509 37.49 53.4109 37.59C53.1709 37.69 52.8843 37.8867 52.5509 38.18V39.97C52.5509 40.3367 52.6876 40.6433 52.9609 40.89C53.2343 41.1367 53.6243 41.26 54.1309 41.26ZM60.4017 42H57.6117V41.69L58.5017 40.99V34.84L57.6117 34.22V33.91L59.3217 33.27H59.7017V41.25L60.6017 41.6L60.4017 42ZM64.9131 42.02C64.6465 42.0733 64.3265 42.1 63.9531 42.1C63.5131 42.1 63.1165 41.9867 62.7631 41.76C62.4165 41.5267 62.1431 41.2133 61.9431 40.82C61.7498 40.4267 61.6531 39.9933 61.6531 39.52C61.6531 39.0067 61.8098 38.5267 62.1231 38.08C62.4365 37.6267 62.8265 37.2667 63.2931 37C63.7665 36.7267 64.2231 36.59 64.6631 36.59C65.2965 36.59 65.7865 36.84 66.1331 37.34C66.4865 37.84 66.6631 38.5 66.6631 39.32H62.9631C63.0031 39.8867 63.1565 40.35 63.4231 40.71C63.6965 41.07 64.0665 41.25 64.5331 41.25C64.9665 41.25 65.5831 40.9133 66.3831 40.24L66.6831 40.62L64.9131 42.02ZM64.0831 37.43C63.3631 37.43 62.9865 37.9233 62.9531 38.91H65.2931C65.2331 38.55 65.1698 38.2767 65.1031 38.09C65.0431 37.8967 64.9331 37.74 64.7731 37.62C64.6198 37.4933 64.3898 37.43 64.0831 37.43Z" fill="black"/>
</svg>
